<svg xmlns="http://www.w3.org/2000/svg" viewBox="0 0 200 200" width="100%" height="100%">
  <!-- Circular Background with Black Outline -->
  <circle cx="100" cy="100" r="90" fill="#e9eff5" stroke="#1e293b" stroke-width="6"/>
  
  <!-- Back Hair (flared shoulders behind head/neck) -->
  <path d="M54 110 C46 130, 48 152, 68 152 C76 152, 78 135, 76 110 Z" fill="#4a3728" stroke="#1e293b" stroke-width="5" stroke-linejoin="round"/>
  <path d="M146 110 C154 130, 152 152, 132 152 C124 152, 122 135, 124 110 Z" fill="#4a3728" stroke="#1e293b" stroke-width="5" stroke-linejoin="round"/>

  <!-- Neck -->
  <path d="M84 110 L84 150 L116 150 L116 110 Z" fill="#fbc0a4" stroke="#1e293b" stroke-width="5"/>
  <!-- Neck Shadow -->
  <path d="M84 110 Q100 120 116 110 L116 116 Q100 126 84 116 Z" fill="#e2a58b" opacity="0.6"/>

  <!-- Ears -->
  <circle cx="62" cy="98" r="9" fill="#fbc0a4" stroke="#1e293b" stroke-width="5"/>
  <circle cx="138" cy="98" r="9" fill="#fbc0a4" stroke="#1e293b" stroke-width="5"/>

  <!-- Head -->
  <ellipse cx="100" cy="94" rx="35" ry="42" fill="#fbc0a4" stroke="#1e293b" stroke-width="5"/>
  
  <!-- Cover inner ear/head outlines where they intersect -->
  <circle cx="62" cy="98" r="6.5" fill="#fbc0a4"/>
  <circle cx="138" cy="98" r="6.5" fill="#fbc0a4"/>
  <ellipse cx="100" cy="94" rx="32.5" ry="39.5" fill="#fbc0a4"/>

  <!-- Female Hair (Bob cut/swept style with no forehead lines) -->
  <path d="M56 105
           C52 80, 66 42, 100 42
           C134 42, 148 80, 144 105
           C148 120, 152 144, 134 144
           C126 144, 126 125, 126 105
           C126 74, 114 68, 100 68
           C86 68, 74 74, 74 105
           C74 125, 74 144, 66 144
           C48 144, 52 120, 56 105 Z" fill="#4a3728" stroke="#1e293b" stroke-width="5" stroke-linejoin="round"/>

  <!-- Shirt (Purple with V-neck cutout) -->
  <path d="M34 185 C34 152, 65 138, 100 138 C135 138, 166 152, 166 185 L166 198 L34 198 Z" fill="#8b5cf6" stroke="#1e293b" stroke-width="5" stroke-linejoin="round"/>
  <!-- V-neck skin showing through -->
  <path d="M78 138 Q100 166 122 138" fill="none" stroke="#1e293b" stroke-width="5" stroke-linecap="round"/>
</svg>
